<svg width="154" height="29" viewBox="0 0 154 29" fill="none" xmlns="http://www.w3.org/2000/svg">
<g clip-path="url(#clip0_2_400)">
<path d="M7.81499 0.226807C7.35528 0.226807 2.06868 0.226807 1.14926 0.226807C0.229853 0.226807 0 0.68926 0 1.61417V27.7428C0 28.899 0.689559 28.899 1.60898 28.899C2.06868 28.899 7.12543 28.899 7.58513 28.899C8.73439 28.899 8.73439 28.2053 8.73439 27.0492C8.73439 25.1994 8.73439 3.46398 8.73439 1.61417C8.73439 0.68926 8.50454 0.458033 7.81499 0.226807Z" fill="#E0462D"/>
<path d="M42.5189 15.7167C39.9905 14.3294 27.1188 9.70489 24.3606 8.54876C23.671 8.31753 23.4412 7.85508 23.4412 7.39263C23.671 6.93017 24.3606 6.93017 24.5904 6.93017C24.8203 6.93017 27.5785 6.93017 43.6681 6.93017C44.5876 6.93017 45.0473 6.69895 45.0473 5.77403C45.0473 5.31157 45.0473 2.30563 45.0473 2.0744C45.0473 0.918265 44.8175 0.455811 43.6681 0.455811C42.289 0.455811 26.4292 0.455811 21.3725 0.687037C15.856 0.918265 14.0172 3.69299 13.7873 6.69895C13.3276 9.47367 14.4769 12.2484 17.0052 13.867C19.3039 15.4856 27.5785 18.2603 35.3935 21.2662C36.7726 21.2662 36.7726 21.7287 36.5427 22.1912C36.3129 22.4224 35.8532 22.4224 35.1636 22.6535C33.3247 22.6535 17.0052 22.4224 16.0858 22.4224C14.9366 22.4224 14.7067 22.8849 14.7067 24.2722C14.7067 24.5035 14.7067 27.0469 14.7067 27.2781C14.7067 28.4343 14.9366 28.8967 16.0858 28.8967C22.9815 28.8967 34.9338 29.128 37.2323 28.8967C41.1397 28.6655 43.4384 27.9719 45.0473 25.8908C46.6563 23.3473 46.8861 18.2603 42.5189 15.7167Z" fill="#E0462D"/>
<path d="M97.6841 20.8087C100.902 19.1901 110.096 15.028 114.693 12.0221C117.451 10.1722 119.06 7.16628 117.681 3.92911C116.762 1.38562 114.693 0.460703 110.326 0.229477C107.108 -0.00175063 88.49 0.229477 88.0303 0.229477C86.6512 0.229477 86.6511 0.69193 86.6511 2.0793C86.6511 2.31052 86.6511 5.31647 86.6511 5.77892C86.6511 6.70383 87.3407 6.93506 88.0303 6.93506C88.49 6.93506 106.418 6.70383 107.568 6.70383C108.257 6.70383 108.487 6.93506 108.487 7.39751C108.487 7.62874 108.257 7.85996 107.798 8.09119C102.281 10.8659 93.0871 15.028 90.3289 16.6466C86.4213 18.7276 85.5019 21.2712 85.7318 23.5834C85.9616 26.3582 87.5706 28.6704 93.0871 28.9016C98.1438 29.1328 112.165 28.9016 115.842 28.6704C116.992 28.6704 117.222 28.208 117.222 27.283C117.222 26.8205 117.222 24.7396 117.222 24.5083C117.222 22.8898 116.992 22.4273 115.613 22.4273C114.463 22.4273 100.672 22.6585 96.5348 22.6585C95.8453 22.6585 95.6154 22.196 95.8453 21.9648C96.5348 21.5023 96.9945 21.2712 97.6841 20.8087Z" fill="#E0462D"/>
<path d="M80.2136 0.228271C79.2942 0.228271 74.4673 0.228271 73.7778 0.228271C73.0882 0.228271 72.6285 0.459498 72.6285 1.61563C72.6285 2.54055 72.6285 14.5644 72.6285 16.8766C72.6285 19.8826 72.1688 21.9637 68.721 22.1948C66.6523 22.426 65.2732 22.426 63.4344 22.1948C60.2165 21.9637 59.5268 20.5762 59.5268 16.4142C59.5268 13.8707 59.5268 3.003 59.5268 1.84685C59.5268 0.690726 59.5268 0.228271 58.1477 0.228271C57.2283 0.228271 52.6313 0.228271 52.1716 0.228271C51.4821 0.228271 50.7925 0.459498 50.7925 1.61563C50.7925 2.30932 50.7925 11.3272 50.7925 18.9576C50.7925 28.6691 56.9985 28.438 59.9866 28.6691C61.8254 28.9005 69.4105 28.9005 72.8584 28.6691C79.0643 28.2067 80.9031 24.7383 81.133 19.6514C81.133 16.4142 81.3628 4.62159 81.3628 1.84685C81.133 0.921953 81.133 0.228271 80.2136 0.228271Z" fill="#E0462D"/>
<path d="M154.001 1.61859C154.001 0.693682 153.772 0.231227 152.852 0C151.933 0 147.105 0 146.646 0C145.726 0 145.267 0.462453 145.267 1.38736C145.267 2.31227 145.267 15.261 145.267 17.5733C145.267 21.0417 144.117 21.5041 142.739 21.7354C141.129 22.1978 136.302 21.9665 135.613 21.9665C133.774 21.7354 132.395 20.8104 132.395 17.5733C132.395 14.3361 132.395 2.54349 132.395 1.38736C132.395 0.462453 131.935 0 131.246 0C130.556 0 125.959 0 125.04 0C123.891 0 123.661 0.693682 123.661 1.61859C123.661 3.69963 123.661 17.8045 123.891 20.1167C124.35 25.6662 126.879 27.9785 131.246 28.4409C135.384 28.9033 145.037 28.9033 148.025 28.2097C152.852 27.0535 153.772 22.8915 154.001 18.0357C154.001 15.261 154.001 3.00595 154.001 1.61859Z" fill="#E0462D"/>
</g>
<defs>
<clipPath id="clip0_2_400">
<rect width="154" height="29" fill="white"/>
</clipPath>
</defs>
</svg>
